# Blender v2.93.3 OBJ File: 'Selector.blend'
# www.blender.org
mtllib Selector.mtl
o Torus
v -0.740884 0.023550 0.026466
v -0.989841 0.023955 0.448002
v -0.990669 0.023955 0.195356
v -0.935093 0.032771 0.416393
v -0.898417 0.027027 0.393796
v -0.869988 0.024811 0.144107
v -0.911123 0.032771 0.161030
v -0.996649 0.024850 0.090228
v -0.991168 0.023955 0.991168
v -0.922954 0.032771 0.922954
v -0.893317 0.027027 0.893317
v -0.914306 0.032771 0.069700
v -0.740884 0.023550 -0.026466
v -0.989841 0.023955 -0.448002
v -0.990669 0.023955 -0.195356
v -0.935093 0.032771 -0.416393
v -0.898417 0.027027 -0.393796
v -0.869988 0.024811 -0.144107
v -0.911123 0.032771 -0.161030
v -0.996649 0.024850 -0.090228
v -0.732319 0.023259 0.000000
v -0.991168 0.023955 -0.991168
v -0.922954 0.032771 -0.922954
v -0.893317 0.027027 -0.893317
v -1.000000 0.024850 0.000000
v -0.914306 0.032771 -0.069700
v -0.916543 0.032771 0.000000
v -0.740884 -0.023550 0.026466
v -0.989841 -0.023955 0.448002
v -0.990669 -0.023955 0.195356
v -0.935093 -0.032771 0.416393
v -0.898417 -0.027027 0.393796
v -0.869988 -0.024811 0.144107
v -0.911123 -0.032771 0.161030
v -0.996649 -0.024850 0.090228
v -0.991168 -0.023955 0.991168
v -0.922954 -0.032771 0.922954
v -0.893317 -0.027027 0.893317
v -0.990669 0.000000 0.195356
v -0.989841 0.000000 0.448002
v -0.991168 0.000000 0.991168
v -0.996649 0.000000 0.090228
v -0.898417 0.000000 0.393796
v -0.869988 0.000000 0.144107
v -0.893317 0.000000 0.893317
v -0.914306 -0.032771 0.069700
v -0.740884 -0.023550 -0.026466
v -0.665000 0.000000 0.000000
v -0.989841 -0.023955 -0.448002
v -0.990669 -0.023955 -0.195356
v -0.935093 -0.032771 -0.416393
v -0.898417 -0.027027 -0.393796
v -0.869988 -0.024811 -0.144107
v -0.911123 -0.032771 -0.161030
v -0.996649 -0.024850 -0.090228
v -0.732319 -0.023259 0.000000
v -0.991168 -0.023955 -0.991168
v -0.922954 -0.032771 -0.922954
v -0.893317 -0.027027 -0.893317
v -1.000000 -0.024850 0.000000
v -0.990669 0.000000 -0.195356
v -0.989841 0.000000 -0.448002
v -0.732319 0.000000 0.000000
v -1.000000 0.000000 0.000000
v -0.991168 0.000000 -0.991168
v -0.996649 0.000000 -0.090228
v -0.898417 0.000000 -0.393796
v -0.869988 0.000000 -0.144107
v -0.893317 0.000000 -0.893317
v -0.914306 -0.032771 -0.069700
v -0.916543 -0.032771 0.000000
v 0.026466 0.023550 0.740884
v 0.448002 0.023955 0.989841
v 0.195356 0.023955 0.990669
v 0.416393 0.032771 0.935093
v 0.393796 0.027027 0.898417
v 0.144107 0.024811 0.869988
v 0.161030 0.032771 0.911123
v 0.090228 0.024850 0.996649
v 0.991168 0.023955 0.991168
v 0.922954 0.032771 0.922954
v 0.893317 0.027027 0.893317
v 0.069700 0.032771 0.914306
v -0.026466 0.023550 0.740884
v -0.448002 0.023955 0.989841
v -0.195356 0.023955 0.990669
v -0.416393 0.032771 0.935093
v -0.393796 0.027027 0.898417
v -0.144107 0.024811 0.869988
v -0.161030 0.032771 0.911123
v -0.090228 0.024850 0.996649
v 0.000000 0.023259 0.732319
v -0.991168 0.023955 0.991168
v -0.922954 0.032771 0.922954
v -0.893317 0.027027 0.893317
v 0.000000 0.024850 1.000000
v -0.069700 0.032771 0.914306
v 0.000000 0.032771 0.916543
v 0.026466 -0.023550 0.740884
v 0.448002 -0.023955 0.989841
v 0.195356 -0.023955 0.990669
v 0.416393 -0.032771 0.935093
v 0.393796 -0.027027 0.898417
v 0.144107 -0.024811 0.869988
v 0.161030 -0.032771 0.911123
v 0.090228 -0.024850 0.996649
v 0.991168 -0.023955 0.991168
v 0.922954 -0.032771 0.922954
v 0.893317 -0.027027 0.893317
v 0.195356 0.000000 0.990669
v 0.448002 0.000000 0.989841
v 0.991168 0.000000 0.991168
v 0.090228 0.000000 0.996649
v 0.393796 0.000000 0.898417
v 0.144107 0.000000 0.869988
v 0.893317 0.000000 0.893317
v 0.069700 -0.032771 0.914306
v -0.026466 -0.023550 0.740884
v 0.000000 0.000000 0.665000
v -0.448002 -0.023955 0.989841
v -0.195356 -0.023955 0.990669
v -0.416393 -0.032771 0.935093
v -0.393796 -0.027027 0.898417
v -0.144107 -0.024811 0.869988
v -0.161030 -0.032771 0.911123
v -0.090228 -0.024850 0.996649
v 0.000000 -0.023259 0.732319
v -0.991168 -0.023955 0.991168
v -0.922954 -0.032771 0.922954
v -0.893317 -0.027027 0.893317
v 0.000000 -0.024850 1.000000
v -0.195356 0.000000 0.990669
v -0.448002 0.000000 0.989841
v 0.000000 0.000000 0.732319
v 0.000000 0.000000 1.000000
v -0.991168 0.000000 0.991168
v -0.090228 0.000000 0.996649
v -0.393796 0.000000 0.898417
v -0.144107 0.000000 0.869988
v -0.893317 0.000000 0.893317
v -0.069700 -0.032771 0.914306
v 0.000000 -0.032771 0.916543
v 0.740884 0.023550 -0.026466
v 0.989841 0.023955 -0.448002
v 0.990669 0.023955 -0.195356
v 0.935093 0.032771 -0.416394
v 0.898417 0.027027 -0.393796
v 0.869988 0.024811 -0.144107
v 0.911123 0.032771 -0.161030
v 0.996649 0.024850 -0.090228
v 0.991168 0.023955 -0.991168
v 0.922954 0.032771 -0.922954
v 0.893317 0.027027 -0.893317
v 0.914306 0.032771 -0.069700
v 0.740884 0.023550 0.026466
v 0.989841 0.023955 0.448002
v 0.990669 0.023955 0.195356
v 0.935093 0.032771 0.416393
v 0.898417 0.027027 0.393796
v 0.869988 0.024811 0.144107
v 0.911123 0.032771 0.161030
v 0.996649 0.024850 0.090228
v 0.732319 0.023259 -0.000000
v 0.991168 0.023955 0.991168
v 0.922954 0.032771 0.922954
v 0.893317 0.027027 0.893317
v 1.000000 0.024850 -0.000000
v 0.914306 0.032771 0.069700
v 0.916543 0.032771 -0.000000
v 0.740884 -0.023550 -0.026466
v 0.989841 -0.023955 -0.448002
v 0.990669 -0.023955 -0.195356
v 0.935093 -0.032771 -0.416394
v 0.898417 -0.027027 -0.393796
v 0.869988 -0.024811 -0.144107
v 0.911123 -0.032771 -0.161030
v 0.996649 -0.024850 -0.090228
v 0.991168 -0.023955 -0.991168
v 0.922954 -0.032771 -0.922954
v 0.893317 -0.027027 -0.893317
v 0.990669 0.000000 -0.195356
v 0.989841 0.000000 -0.448002
v 0.991168 0.000000 -0.991168
v 0.996649 0.000000 -0.090228
v 0.898417 0.000000 -0.393796
v 0.869988 0.000000 -0.144107
v 0.893317 0.000000 -0.893317
v 0.914306 -0.032771 -0.069700
v 0.740884 -0.023550 0.026466
v 0.665000 0.000000 -0.000000
v 0.989841 -0.023955 0.448002
v 0.990669 -0.023955 0.195356
v 0.935093 -0.032771 0.416393
v 0.898417 -0.027027 0.393796
v 0.869988 -0.024811 0.144107
v 0.911123 -0.032771 0.161030
v 0.996649 -0.024850 0.090228
v 0.732319 -0.023259 -0.000000
v 0.991168 -0.023955 0.991168
v 0.922954 -0.032771 0.922954
v 0.893317 -0.027027 0.893317
v 1.000000 -0.024850 -0.000000
v 0.990669 0.000000 0.195356
v 0.989841 0.000000 0.448002
v 0.732319 0.000000 -0.000000
v 1.000000 0.000000 -0.000000
v 0.991168 0.000000 0.991168
v 0.996649 0.000000 0.090228
v 0.898417 0.000000 0.393796
v 0.869988 0.000000 0.144107
v 0.893317 0.000000 0.893317
v 0.914306 -0.032771 0.069700
v 0.916543 -0.032771 -0.000000
v -0.026466 0.023550 -0.740884
v -0.448002 0.023955 -0.989841
v -0.195356 0.023955 -0.990669
v -0.416394 0.032771 -0.935093
v -0.393796 0.027027 -0.898417
v -0.144107 0.024811 -0.869988
v -0.161030 0.032771 -0.911123
v -0.090228 0.024850 -0.996649
v -0.991168 0.023955 -0.991168
v -0.922954 0.032771 -0.922954
v -0.893317 0.027027 -0.893317
v -0.069700 0.032771 -0.914306
v 0.026466 0.023550 -0.740884
v 0.448002 0.023955 -0.989841
v 0.195355 0.023955 -0.990669
v 0.416393 0.032771 -0.935093
v 0.393796 0.027027 -0.898417
v 0.144107 0.024811 -0.869988
v 0.161030 0.032771 -0.911123
v 0.090228 0.024850 -0.996649
v -0.000000 0.023259 -0.732319
v 0.991168 0.023955 -0.991168
v 0.922954 0.032771 -0.922954
v 0.893317 0.027027 -0.893317
v -0.000000 0.024850 -1.000000
v 0.069700 0.032771 -0.914306
v -0.000000 0.032771 -0.916543
v -0.026466 -0.023550 -0.740884
v -0.448002 -0.023955 -0.989841
v -0.195356 -0.023955 -0.990669
v -0.416394 -0.032771 -0.935093
v -0.393796 -0.027027 -0.898417
v -0.144107 -0.024811 -0.869988
v -0.161030 -0.032771 -0.911123
v -0.090228 -0.024850 -0.996649
v -0.991168 -0.023955 -0.991168
v -0.922954 -0.032771 -0.922954
v -0.893317 -0.027027 -0.893317
v -0.195356 0.000000 -0.990669
v -0.448002 0.000000 -0.989841
v -0.991168 0.000000 -0.991168
v -0.090228 0.000000 -0.996649
v -0.393796 0.000000 -0.898417
v -0.144107 0.000000 -0.869988
v -0.893317 0.000000 -0.893317
v -0.069700 -0.032771 -0.914306
v 0.026466 -0.023550 -0.740884
v -0.000000 0.000000 -0.665000
v 0.448002 -0.023955 -0.989841
v 0.195355 -0.023955 -0.990669
v 0.416393 -0.032771 -0.935093
v 0.393796 -0.027027 -0.898417
v 0.144107 -0.024811 -0.869988
v 0.161030 -0.032771 -0.911123
v 0.090228 -0.024850 -0.996649
v -0.000000 -0.023259 -0.732319
v 0.991168 -0.023955 -0.991168
v 0.922954 -0.032771 -0.922954
v 0.893317 -0.027027 -0.893317
v -0.000000 -0.024850 -1.000000
v 0.195355 0.000000 -0.990669
v 0.448002 0.000000 -0.989841
v -0.000000 0.000000 -0.732319
v -0.000000 0.000000 -1.000000
v 0.991168 0.000000 -0.991168
v 0.090228 0.000000 -0.996649
v 0.393796 0.000000 -0.898417
v 0.144107 0.000000 -0.869988
v 0.893317 0.000000 -0.893317
v 0.069700 -0.032771 -0.914306
v -0.000000 -0.032771 -0.916543
vn 0.5751 0.0000 0.8181
vn 0.3251 0.9409 0.0949
vn -1.0000 0.0000 0.0033
vn 0.1805 0.9835 0.0144
vn -0.1331 0.9911 -0.0061
vn 0.3740 0.8360 0.4015
vn 0.1685 0.9857 -0.0029
vn -1.0000 0.0000 -0.0024
vn -0.1408 0.9900 0.0015
vn -0.9993 0.0000 0.0371
vn -0.0998 0.9950 0.0092
vn -0.9984 0.0000 0.0568
vn 0.9999 0.0000 -0.0102
vn 0.9936 0.0000 0.1131
vn -0.0947 0.9955 0.0033
vn 0.0524 0.9986 0.0004
vn 0.0526 0.9986 -0.0018
vn 0.5751 0.0000 -0.8181
vn 0.3251 0.9409 -0.0949
vn -1.0000 0.0000 -0.0033
vn 0.1805 0.9835 -0.0144
vn -0.1331 0.9911 0.0061
vn 0.3740 0.8360 -0.4015
vn 0.1685 0.9857 0.0029
vn -1.0000 0.0000 0.0024
vn -0.1408 0.9900 -0.0015
vn -0.9993 0.0000 -0.0371
vn -0.0998 0.9950 -0.0092
vn -0.9984 0.0000 -0.0568
vn 0.0000 0.0000 1.0000
vn 0.9999 0.0000 0.0102
vn 0.9936 0.0000 -0.1131
vn -0.0947 0.9955 -0.0033
vn 0.0524 0.9986 -0.0004
vn 0.0526 0.9986 0.0018
vn 0.3251 -0.9409 0.0949
vn 0.1805 -0.9835 0.0144
vn -0.1331 -0.9911 -0.0061
vn 0.3740 -0.8360 0.4015
vn 0.1685 -0.9857 -0.0029
vn -0.1408 -0.9900 0.0015
vn -0.0998 -0.9950 0.0092
vn -0.0947 -0.9955 0.0033
vn 0.0524 -0.9986 0.0004
vn 0.0526 -0.9986 -0.0018
vn 0.3251 -0.9409 -0.0949
vn 0.1805 -0.9835 -0.0144
vn -0.1331 -0.9911 0.0061
vn 0.3740 -0.8360 -0.4015
vn 0.1685 -0.9857 0.0029
vn -0.1408 -0.9900 -0.0015
vn -0.0998 -0.9950 -0.0092
vn -0.0947 -0.9955 -0.0033
vn 0.0524 -0.9986 -0.0004
vn 0.0526 -0.9986 0.0018
vn 0.8181 0.0000 -0.5751
vn 0.0949 0.9409 -0.3251
vn 0.0033 0.0000 1.0000
vn 0.0144 0.9835 -0.1805
vn -0.0061 0.9911 0.1331
vn 0.4015 0.8360 -0.3740
vn -0.0029 0.9857 -0.1685
vn -0.0024 0.0000 1.0000
vn 0.0015 0.9900 0.1408
vn 0.0371 0.0000 0.9993
vn 0.0092 0.9950 0.0998
vn 0.0568 0.0000 0.9984
vn -0.0102 0.0000 -0.9999
vn 0.1131 0.0000 -0.9936
vn 0.0033 0.9955 0.0947
vn 0.0004 0.9986 -0.0524
vn -0.0018 0.9986 -0.0526
vn -0.8181 0.0000 -0.5751
vn -0.0949 0.9409 -0.3251
vn -0.0033 0.0000 1.0000
vn -0.0144 0.9835 -0.1805
vn 0.0061 0.9911 0.1331
vn -0.4015 0.8360 -0.3740
vn 0.0029 0.9857 -0.1685
vn 0.0024 0.0000 1.0000
vn -0.0015 0.9900 0.1408
vn -0.0371 0.0000 0.9993
vn -0.0092 0.9950 0.0998
vn -0.0568 0.0000 0.9984
vn 1.0000 0.0000 -0.0000
vn 0.0102 0.0000 -0.9999
vn -0.1131 0.0000 -0.9936
vn -0.0033 0.9955 0.0947
vn -0.0004 0.9986 -0.0524
vn 0.0018 0.9986 -0.0526
vn 0.0949 -0.9409 -0.3251
vn 0.0144 -0.9835 -0.1805
vn -0.0061 -0.9911 0.1331
vn 0.4015 -0.8360 -0.3740
vn -0.0029 -0.9857 -0.1685
vn 0.0015 -0.9900 0.1408
vn 0.0092 -0.9950 0.0998
vn 0.0033 -0.9955 0.0947
vn 0.0004 -0.9986 -0.0524
vn -0.0018 -0.9986 -0.0526
vn -0.0949 -0.9409 -0.3251
vn -0.0144 -0.9835 -0.1805
vn 0.0061 -0.9911 0.1331
vn -0.4015 -0.8360 -0.3740
vn 0.0029 -0.9857 -0.1685
vn -0.0015 -0.9900 0.1408
vn -0.0092 -0.9950 0.0998
vn -0.0033 -0.9955 0.0947
vn -0.0004 -0.9986 -0.0524
vn 0.0018 -0.9986 -0.0526
vn -0.5751 0.0000 -0.8181
vn -0.3251 0.9409 -0.0949
vn 1.0000 0.0000 -0.0033
vn -0.1805 0.9835 -0.0144
vn 0.1331 0.9911 0.0061
vn -0.3740 0.8360 -0.4015
vn -0.1685 0.9857 0.0029
vn 1.0000 0.0000 0.0024
vn 0.1408 0.9900 -0.0015
vn 0.9993 0.0000 -0.0371
vn 0.0998 0.9950 -0.0092
vn 0.9984 0.0000 -0.0568
vn -0.9999 0.0000 0.0102
vn -0.9936 0.0000 -0.1131
vn 0.0947 0.9955 -0.0033
vn -0.0524 0.9986 -0.0004
vn -0.0526 0.9986 0.0018
vn -0.5751 0.0000 0.8181
vn -0.3251 0.9409 0.0949
vn 1.0000 0.0000 0.0033
vn -0.1805 0.9835 0.0144
vn 0.1331 0.9911 -0.0061
vn -0.3740 0.8360 0.4015
vn -0.1685 0.9857 -0.0029
vn 1.0000 0.0000 -0.0024
vn 0.1408 0.9900 0.0015
vn 0.9993 0.0000 0.0371
vn 0.0998 0.9950 0.0092
vn 0.9984 0.0000 0.0568
vn -0.0000 0.0000 -1.0000
vn -0.9999 0.0000 -0.0102
vn -0.9936 0.0000 0.1131
vn 0.0947 0.9955 0.0033
vn -0.0524 0.9986 0.0004
vn -0.0526 0.9986 -0.0018
vn -0.3251 -0.9409 -0.0949
vn -0.1805 -0.9835 -0.0144
vn 0.1331 -0.9911 0.0061
vn -0.3740 -0.8360 -0.4015
vn -0.1685 -0.9857 0.0029
vn 0.1408 -0.9900 -0.0015
vn 0.0998 -0.9950 -0.0092
vn 0.0947 -0.9955 -0.0033
vn -0.0524 -0.9986 -0.0004
vn -0.0526 -0.9986 0.0018
vn -0.3251 -0.9409 0.0949
vn -0.1805 -0.9835 0.0144
vn 0.1331 -0.9911 -0.0061
vn -0.3740 -0.8360 0.4015
vn -0.1685 -0.9857 -0.0029
vn 0.1408 -0.9900 0.0015
vn 0.0998 -0.9950 0.0092
vn 0.0947 -0.9955 0.0033
vn -0.0524 -0.9986 0.0004
vn -0.0526 -0.9986 -0.0018
vn -0.8181 0.0000 0.5751
vn -0.0949 0.9409 0.3251
vn -0.0033 0.0000 -1.0000
vn -0.0144 0.9835 0.1805
vn 0.0061 0.9911 -0.1331
vn -0.4015 0.8360 0.3740
vn 0.0029 0.9857 0.1685
vn 0.0024 0.0000 -1.0000
vn -0.0015 0.9900 -0.1408
vn -0.0371 0.0000 -0.9993
vn -0.0092 0.9950 -0.0998
vn -0.0568 0.0000 -0.9984
vn 0.0102 0.0000 0.9999
vn -0.1131 0.0000 0.9936
vn -0.0033 0.9955 -0.0947
vn -0.0004 0.9986 0.0524
vn 0.0018 0.9986 0.0526
vn 0.8181 0.0000 0.5751
vn 0.0949 0.9409 0.3251
vn 0.0033 0.0000 -1.0000
vn 0.0144 0.9835 0.1805
vn -0.0061 0.9911 -0.1331
vn 0.4015 0.8360 0.3740
vn -0.0029 0.9857 0.1685
vn -0.0024 0.0000 -1.0000
vn 0.0015 0.9900 -0.1408
vn 0.0371 0.0000 -0.9993
vn 0.0092 0.9950 -0.0998
vn 0.0568 0.0000 -0.9984
vn -1.0000 -0.0000 0.0000
vn -0.0102 0.0000 0.9999
vn 0.1131 0.0000 0.9936
vn 0.0033 0.9955 -0.0947
vn 0.0004 0.9986 0.0524
vn -0.0018 0.9986 0.0526
vn -0.0949 -0.9409 0.3251
vn -0.0144 -0.9835 0.1805
vn 0.0061 -0.9911 -0.1331
vn -0.4015 -0.8360 0.3740
vn 0.0029 -0.9857 0.1685
vn -0.0015 -0.9900 -0.1408
vn -0.0092 -0.9950 -0.0998
vn -0.0033 -0.9955 -0.0947
vn -0.0004 -0.9986 0.0524
vn 0.0018 -0.9986 0.0526
vn 0.0949 -0.9409 0.3251
vn 0.0144 -0.9835 0.1805
vn -0.0061 -0.9911 -0.1331
vn 0.4015 -0.8360 0.3740
vn -0.0029 -0.9857 0.1685
vn 0.0015 -0.9900 -0.1408
vn 0.0092 -0.9950 -0.0998
vn 0.0033 -0.9955 -0.0947
vn 0.0004 -0.9986 0.0524
vn -0.0018 -0.9986 0.0526
usemtl None
s off
f 6//1 44//1 48//1
f 1//2 48//2 21//2
f 39//3 40//3 2//3 3//3
f 4//4 5//4 6//4 7//4
f 2//5 4//5 7//5 3//5
f 1//6 7//6 6//6 48//6
f 4//7 10//7 11//7 5//7
f 40//8 41//8 9//8 2//8
f 2//9 9//9 10//9 4//9
f 42//10 8//10 25//10 64//10
f 7//11 12//11 8//11 3//11
f 3//12 8//12 42//12 39//12
f 5//13 11//13 45//13 43//13
f 5//14 43//14 44//14 6//14
f 25//15 8//15 12//15 27//15
f 21//16 27//16 12//16 1//16
f 12//17 7//17 1//17
f 18//18 48//18 68//18
f 13//19 21//19 48//19
f 61//20 15//20 14//20 62//20
f 16//21 19//21 18//21 17//21
f 14//22 15//22 19//22 16//22
f 13//23 48//23 18//23 19//23
f 16//24 17//24 24//24 23//24
f 62//25 14//25 22//25 65//25
f 14//26 16//26 23//26 22//26
f 66//27 64//27 25//27 20//27
f 19//28 15//28 20//28 26//28
f 15//29 61//29 66//29 20//29
f 21//30 27//30 25//30 64//30 63//30
f 17//31 67//31 69//31 24//31
f 17//32 18//32 68//32 67//32
f 25//33 27//33 26//33 20//33
f 21//34 13//34 26//34 27//34
f 26//35 13//35 19//35
f 33//1 48//1 44//1
f 28//36 56//36 48//36
f 39//3 30//3 29//3 40//3
f 31//37 34//37 33//37 32//37
f 29//38 30//38 34//38 31//38
f 28//39 48//39 33//39 34//39
f 31//40 32//40 38//40 37//40
f 40//8 29//8 36//8 41//8
f 29//41 31//41 37//41 36//41
f 42//10 64//10 60//10 35//10
f 34//42 30//42 35//42 46//42
f 30//12 39//12 42//12 35//12
f 32//13 43//13 45//13 38//13
f 32//14 33//14 44//14 43//14
f 60//43 71//43 46//43 35//43
f 56//44 28//44 46//44 71//44
f 46//45 28//45 34//45
f 53//18 68//18 48//18
f 47//46 48//46 56//46
f 61//20 62//20 49//20 50//20
f 51//47 52//47 53//47 54//47
f 49//48 51//48 54//48 50//48
f 47//49 54//49 53//49 48//49
f 51//50 58//50 59//50 52//50
f 62//25 65//25 57//25 49//25
f 49//51 57//51 58//51 51//51
f 66//27 55//27 60//27 64//27
f 54//52 70//52 55//52 50//52
f 50//29 55//29 66//29 61//29
f 56//30 63//30 64//30 60//30 71//30
f 52//31 59//31 69//31 67//31
f 52//32 67//32 68//32 53//32
f 60//53 55//53 70//53 71//53
f 56//54 71//54 70//54 47//54
f 70//55 54//55 47//55
f 77//56 115//56 119//56
f 72//57 119//57 92//57
f 110//58 111//58 73//58 74//58
f 75//59 76//59 77//59 78//59
f 73//60 75//60 78//60 74//60
f 72//61 78//61 77//61 119//61
f 75//62 81//62 82//62 76//62
f 111//63 112//63 80//63 73//63
f 73//64 80//64 81//64 75//64
f 113//65 79//65 96//65 135//65
f 78//66 83//66 79//66 74//66
f 74//67 79//67 113//67 110//67
f 76//68 82//68 116//68 114//68
f 76//69 114//69 115//69 77//69
f 96//70 79//70 83//70 98//70
f 92//71 98//71 83//71 72//71
f 83//72 78//72 72//72
f 89//73 119//73 139//73
f 84//74 92//74 119//74
f 132//75 86//75 85//75 133//75
f 87//76 90//76 89//76 88//76
f 85//77 86//77 90//77 87//77
f 84//78 119//78 89//78 90//78
f 87//79 88//79 95//79 94//79
f 133//80 85//80 93//80 136//80
f 85//81 87//81 94//81 93//81
f 137//82 135//82 96//82 91//82
f 90//83 86//83 91//83 97//83
f 86//84 132//84 137//84 91//84
f 92//85 98//85 96//85 135//85 134//85
f 88//86 138//86 140//86 95//86
f 88//87 89//87 139//87 138//87
f 96//88 98//88 97//88 91//88
f 92//89 84//89 97//89 98//89
f 97//90 84//90 90//90
f 104//56 119//56 115//56
f 99//91 127//91 119//91
f 110//58 101//58 100//58 111//58
f 102//92 105//92 104//92 103//92
f 100//93 101//93 105//93 102//93
f 99//94 119//94 104//94 105//94
f 102//95 103//95 109//95 108//95
f 111//63 100//63 107//63 112//63
f 100//96 102//96 108//96 107//96
f 113//65 135//65 131//65 106//65
f 105//97 101//97 106//97 117//97
f 101//67 110//67 113//67 106//67
f 103//68 114//68 116//68 109//68
f 103//69 104//69 115//69 114//69
f 131//98 142//98 117//98 106//98
f 127//99 99//99 117//99 142//99
f 117//100 99//100 105//100
f 124//73 139//73 119//73
f 118//101 119//101 127//101
f 132//75 133//75 120//75 121//75
f 122//102 123//102 124//102 125//102
f 120//103 122//103 125//103 121//103
f 118//104 125//104 124//104 119//104
f 122//105 129//105 130//105 123//105
f 133//80 136//80 128//80 120//80
f 120//106 128//106 129//106 122//106
f 137//82 126//82 131//82 135//82
f 125//107 141//107 126//107 121//107
f 121//84 126//84 137//84 132//84
f 127//85 134//85 135//85 131//85 142//85
f 123//86 130//86 140//86 138//86
f 123//87 138//87 139//87 124//87
f 131//108 126//108 141//108 142//108
f 127//109 142//109 141//109 118//109
f 141//110 125//110 118//110
f 148//111 186//111 190//111
f 143//112 190//112 163//112
f 181//113 182//113 144//113 145//113
f 146//114 147//114 148//114 149//114
f 144//115 146//115 149//115 145//115
f 143//116 149//116 148//116 190//116
f 146//117 152//117 153//117 147//117
f 182//118 183//118 151//118 144//118
f 144//119 151//119 152//119 146//119
f 184//120 150//120 167//120 206//120
f 149//121 154//121 150//121 145//121
f 145//122 150//122 184//122 181//122
f 147//123 153//123 187//123 185//123
f 147//124 185//124 186//124 148//124
f 167//125 150//125 154//125 169//125
f 163//126 169//126 154//126 143//126
f 154//127 149//127 143//127
f 160//128 190//128 210//128
f 155//129 163//129 190//129
f 203//130 157//130 156//130 204//130
f 158//131 161//131 160//131 159//131
f 156//132 157//132 161//132 158//132
f 155//133 190//133 160//133 161//133
f 158//134 159//134 166//134 165//134
f 204//135 156//135 164//135 207//135
f 156//136 158//136 165//136 164//136
f 208//137 206//137 167//137 162//137
f 161//138 157//138 162//138 168//138
f 157//139 203//139 208//139 162//139
f 163//140 169//140 167//140 206//140 205//140
f 159//141 209//141 211//141 166//141
f 159//142 160//142 210//142 209//142
f 167//143 169//143 168//143 162//143
f 163//144 155//144 168//144 169//144
f 168//145 155//145 161//145
f 175//111 190//111 186//111
f 170//146 198//146 190//146
f 181//113 172//113 171//113 182//113
f 173//147 176//147 175//147 174//147
f 171//148 172//148 176//148 173//148
f 170//149 190//149 175//149 176//149
f 173//150 174//150 180//150 179//150
f 182//118 171//118 178//118 183//118
f 171//151 173//151 179//151 178//151
f 184//120 206//120 202//120 177//120
f 176//152 172//152 177//152 188//152
f 172//122 181//122 184//122 177//122
f 174//123 185//123 187//123 180//123
f 174//124 175//124 186//124 185//124
f 202//153 213//153 188//153 177//153
f 198//154 170//154 188//154 213//154
f 188//155 170//155 176//155
f 195//128 210//128 190//128
f 189//156 190//156 198//156
f 203//130 204//130 191//130 192//130
f 193//157 194//157 195//157 196//157
f 191//158 193//158 196//158 192//158
f 189//159 196//159 195//159 190//159
f 193//160 200//160 201//160 194//160
f 204//135 207//135 199//135 191//135
f 191//161 199//161 200//161 193//161
f 208//137 197//137 202//137 206//137
f 196//162 212//162 197//162 192//162
f 192//139 197//139 208//139 203//139
f 198//140 205//140 206//140 202//140 213//140
f 194//141 201//141 211//141 209//141
f 194//142 209//142 210//142 195//142
f 202//163 197//163 212//163 213//163
f 198//164 213//164 212//164 189//164
f 212//165 196//165 189//165
f 219//166 257//166 261//166
f 214//167 261//167 234//167
f 252//168 253//168 215//168 216//168
f 217//169 218//169 219//169 220//169
f 215//170 217//170 220//170 216//170
f 214//171 220//171 219//171 261//171
f 217//172 223//172 224//172 218//172
f 253//173 254//173 222//173 215//173
f 215//174 222//174 223//174 217//174
f 255//175 221//175 238//175 277//175
f 220//176 225//176 221//176 216//176
f 216//177 221//177 255//177 252//177
f 218//178 224//178 258//178 256//178
f 218//179 256//179 257//179 219//179
f 238//180 221//180 225//180 240//180
f 234//181 240//181 225//181 214//181
f 225//182 220//182 214//182
f 231//183 261//183 281//183
f 226//184 234//184 261//184
f 274//185 228//185 227//185 275//185
f 229//186 232//186 231//186 230//186
f 227//187 228//187 232//187 229//187
f 226//188 261//188 231//188 232//188
f 229//189 230//189 237//189 236//189
f 275//190 227//190 235//190 278//190
f 227//191 229//191 236//191 235//191
f 279//192 277//192 238//192 233//192
f 232//193 228//193 233//193 239//193
f 228//194 274//194 279//194 233//194
f 234//195 240//195 238//195 277//195 276//195
f 230//196 280//196 282//196 237//196
f 230//197 231//197 281//197 280//197
f 238//198 240//198 239//198 233//198
f 234//199 226//199 239//199 240//199
f 239//200 226//200 232//200
f 246//166 261//166 257//166
f 241//201 269//201 261//201
f 252//168 243//168 242//168 253//168
f 244//202 247//202 246//202 245//202
f 242//203 243//203 247//203 244//203
f 241//204 261//204 246//204 247//204
f 244//205 245//205 251//205 250//205
f 253//173 242//173 249//173 254//173
f 242//206 244//206 250//206 249//206
f 255//175 277//175 273//175 248//175
f 247//207 243//207 248//207 259//207
f 243//177 252//177 255//177 248//177
f 245//178 256//178 258//178 251//178
f 245//179 246//179 257//179 256//179
f 273//208 284//208 259//208 248//208
f 269//209 241//209 259//209 284//209
f 259//210 241//210 247//210
f 266//183 281//183 261//183
f 260//211 261//211 269//211
f 274//185 275//185 262//185 263//185
f 264//212 265//212 266//212 267//212
f 262//213 264//213 267//213 263//213
f 260//214 267//214 266//214 261//214
f 264//215 271//215 272//215 265//215
f 275//190 278//190 270//190 262//190
f 262//216 270//216 271//216 264//216
f 279//192 268//192 273//192 277//192
f 267//217 283//217 268//217 263//217
f 263//194 268//194 279//194 274//194
f 269//195 276//195 277//195 273//195 284//195
f 265//196 272//196 282//196 280//196
f 265//197 280//197 281//197 266//197
f 273//218 268//218 283//218 284//218
f 269//219 284//219 283//219 260//219
f 283//220 267//220 260//220
