# Blender v2.93.3 OBJ File: 'Tile.blend'
# www.blender.org
mtllib Tile.mtl
o Cube
v 0.917552 0.229388 -1.000000
v 0.917552 0.250000 -0.917552
v 1.000000 0.229388 -0.917552
v 0.917552 -0.250000 -0.917552
v 0.917552 -0.229388 -1.000000
v 1.000000 -0.229388 -0.917552
v 1.000000 0.229388 0.917552
v 0.917552 0.250000 0.917552
v 0.917552 0.229388 1.000000
v 1.000000 -0.229388 0.917552
v 0.917552 -0.229388 1.000000
v 0.917552 -0.250000 0.917552
v -0.917552 0.229388 -1.000000
v -1.000000 0.229388 -0.917552
v -0.917552 0.250000 -0.917552
v -1.000000 -0.229388 -0.917552
v -0.917552 -0.229388 -1.000000
v -0.917552 -0.250000 -0.917552
v -1.000000 0.229388 0.917552
v -0.917552 0.229388 1.000000
v -0.917552 0.250000 0.917552
v -0.917552 -0.250000 0.917552
v -0.917552 -0.229388 1.000000
v -1.000000 -0.229388 0.917552
vt 0.135306 0.510306
vt 0.364694 0.510306
vt 0.364694 0.739694
vt 0.135306 0.739694
vt 0.385306 0.010306
vt 0.614694 0.010306
vt 0.614694 0.239694
vt 0.385306 0.239694
vt 0.385306 0.760306
vt 0.614694 0.760306
vt 0.614694 0.989694
vt 0.385306 0.989694
vt 0.635306 0.510306
vt 0.864694 0.510306
vt 0.864694 0.739694
vt 0.635306 0.739694
vt 0.385306 0.510306
vt 0.614694 0.510306
vt 0.614694 0.739694
vt 0.385306 0.739694
vt 0.614694 0.489694
vt 0.625000 0.489694
vt 0.614694 0.500000
vt 0.364694 0.500000
vt 0.375000 0.510306
vt 0.625000 0.739694
vt 0.614694 0.750000
vt 0.385306 0.750000
vt 0.375000 0.760306
vt 0.375000 0.760306
vt 0.614694 0.250000
vt 0.614694 0.250000
vt 0.625000 0.239694
vt 0.385306 0.250000
vt 0.375000 0.239694
vt 0.614694 0.000000
vt 0.625000 0.010306
vt 0.135306 0.750000
vt 0.125000 0.739694
vt 0.125000 0.510306
vt 0.135306 0.500000
vt 0.385306 0.489694
vt 0.385306 0.000000
vt 0.614694 0.260306
vt 0.385306 0.260306
vt 0.625000 0.760306
vt 0.625000 0.989694
vt 0.364694 0.750000
vt 0.625000 0.260306
vn 0.0000 -1.0000 0.0000
vn -1.0000 0.0000 0.0000
vn 0.0000 0.0000 1.0000
vn 0.0000 1.0000 0.0000
vn 1.0000 0.0000 0.0000
vn 0.2357 0.9428 -0.2357
vn 0.2357 -0.9428 -0.2357
vn 0.2357 0.9428 0.2357
vn 0.2357 -0.9428 0.2357
vn -0.2357 0.9428 -0.2357
vn -0.2357 -0.9428 -0.2357
vn -0.2357 0.9428 0.2357
vn -0.2357 -0.9428 0.2357
vn -0.2425 -0.9701 0.0000
vn 0.0000 -0.9701 -0.2425
vn 0.7071 0.0000 -0.7071
vn -0.7071 0.0000 0.7071
vn 0.7071 0.0000 0.7071
vn -0.7071 0.0000 -0.7071
vn 0.0000 0.9701 0.2425
vn 0.2425 0.9701 0.0000
vn 0.0000 -0.9701 0.2425
vn -0.2425 0.9701 0.0000
vn 0.0000 0.9701 -0.2425
vn 0.2425 -0.9701 0.0000
vn 0.0000 0.0000 -1.0000
usemtl Material
s off
f 18/1/1 4/2/1 12/3/1 22/4/1
f 24/5/2 19/6/2 14/7/2 16/8/2
f 11/9/3 9/10/3 20/11/3 23/12/3
f 2/13/4 15/14/4 21/15/4 8/16/4
f 6/17/5 3/18/5 7/19/5 10/20/5
f 1/21/6 2/22/6 3/23/6
f 4/2/7 5/24/7 6/25/7
f 7/19/8 8/26/8 9/27/8
f 10/28/9 11/29/9 12/30/9
f 13/31/10 14/32/10 15/33/10
f 16/8/11 17/34/11 18/35/11
f 19/6/12 20/36/12 21/37/12
f 22/4/13 23/38/13 24/39/13
f 18/1/14 22/4/14 24/39/14 16/40/14
f 4/2/15 18/1/15 17/41/15 5/24/15
f 3/18/16 6/17/16 5/42/16 1/21/16
f 23/43/17 20/36/17 19/6/17 24/5/17
f 9/10/18 11/9/18 10/20/18 7/19/18
f 13/44/19 17/45/19 16/8/19 14/7/19
f 8/46/20 21/47/20 20/11/20 9/10/20
f 2/13/21 8/16/21 7/19/21 3/18/21
f 22/4/22 12/3/22 11/48/22 23/38/22
f 21/37/23 15/33/23 14/7/23 19/6/23
f 15/49/24 2/22/24 1/21/24 13/44/24
f 12/3/25 4/2/25 6/17/25 10/20/25
f 17/45/26 13/44/26 1/21/26 5/42/26
